<svg xmlns="http://www.w3.org/2000/svg" xmlns:xlink="http://www.w3.org/1999/xlink" width="19" height="20" version="1.1" style=""><rect id="backgroundrect" width="100%" height="100%" x="0" y="0" fill="none" stroke="none"/>

<g class="currentLayer" style=""><title>Layer 1</title><g id="surface1" class="" fill-opacity="1" fill="#ffac32">
<path style="stroke: none; fill-rule: nonzero; fill-opacity: 1;" d="M7.0025141653003695,19.73743288550949 C6.389232165300369,19.73743288550949 5.807201165300369,19.44837088550949 5.43610816530037,18.95618288550949 L0.3970451653003695,12.303839885509491 C-0.2552988346996307,11.436651885509491 -0.08732983469963068,10.206182885509492 0.7798581653003692,9.549932885509492 C1.643139165300369,8.893682885509492 2.8775141653003695,9.065557885509492 3.5298581653003693,9.93274588550949 L6.84235816530037,14.30774588550949 L15.17829516530037,0.924932885509491 C15.752514165300369,0.0030581355094909694 16.96345116530037,-0.27428611449050905 17.88532616530037,0.29602688550949124 C18.811108165300368,0.8702458855094912 19.08845116530037,2.081182885509491 18.51813916530037,3.003057885509491 L8.670482165300369,18.81165188550949 C8.330639165300369,19.35852688550949 7.736889165300369,19.70618288550949 7.09235816530037,19.73352688550949 C7.061108165300369,19.73743288550949 7.02985816530037,19.73743288550949 7.0025141653003695,19.73743288550949 zM7.0025141653003695,19.73743288550949 " id="svg_1" fill="#ffac32"/>
</g></g></svg>